<svg xmlns="http://www.w3.org/2000/svg" width="63px" height="1078px"><style type="text/css"> .rockyBorderSVG{fill:#ECEBDC;} </style><path class="rockyBorderSVG" d="M34.1 0c1 38 11 102 11 102 -1.2 9-3.6 11.8-10 25 -4.3 8.9-13.8 29.8-13 33 3.4 13.5 5 82 5 82 -5 53-32 44-14 66 0 0 16 22 19 59 0 0 5 32-2 85 -0.4 3-5 22-6 28 -2.9 17.5 8 3 6 41 -2.2 41.5 4.2 47.5-5.1 56.5L27.1 610c2 7-14 43-14 43 12 16 31 52 31 52s-3 61-20 90c0 0 7 38 7 90 -3 74 11 138 3 193h29V0H34.1zM30.1 302c-2-5 4-14 4-14 0-13 16-4 10 7l-1 4c3 4-2 7-2 21C39.1 318 30.1 309 30.1 302zM34.1 672.8c3-4.7 9-21 10-25.6 2-5.8 9 7 13 18.6 0 3.5-8 18.6-10 18.6C42.1 688 34.1 672.8 34.1 672.8zM58.1 856c0 0-16 19-18 14 -1-3 0-24-3-35 5.8-2.1 10.8 1.8 15 4 3.8 2 7.1 2.1 8 3C59.1 843 58.1 856 58.1 856z"/><path class="rockyBorderSVG" d="M22.1 368c0 0-1-13 0-15 0-4.2-2-4.5-4-7 -1.8-2.2-3.6-6.9-6-5 -2.7-0.7-2.4 7.5-7 12 -2.4 1.1 7.5 15.2 10 18C17.1 371 22.1 383 22.1 368z"/><path class="rockyBorderSVG" d="M19.1 581c0 0-3-6-8-7 0 0-6 10-11 11 -1 5 6 12 8 14C13.1 599 17.1 592 19.1 581z"/><path class="rockyBorderSVG" d="M12.1 611c-4-1-6 9-8 11 -0.5 3.7 0.7 3.8 2 5 1.6 1.4 3.5 3.5 4 3 4-1 8-12 8-13C18.1 617 20.1 613 12.1 611z"/><path class="rockyBorderSVG" d="M34.1 0c1 38 11 102 11 102 -1.2 9-3.6 11.8-10 25 -4.3 8.9-13.8 29.8-13 33 3.4 13.5 5 82 5 82 -5 53-32 44-14 66 0 0 16 22 19 59 0 0 5 32-2 85 -0.4 3-5 22-6 28 -2.9 17.5 8 3 6 41 -2.2 41.5 4.2 47.5-5.1 56.5L27.1 610c2 7-14 43-14 43 12 16 31 52 31 52s-3 61-20 90c0 0 7 38 7 90 -3 74 11 138 3 193h29V0H34.1zM30.1 302c-2-5 4-14 4-14 0-13 16-4 10 7l-1 4c3 4-2 7-2 21C39.1 318 30.1 309 30.1 302zM34.1 672.8c3-4.7 9-21 10-25.6 2-5.8 9 7 13 18.6 0 3.5-8 18.6-10 18.6C42.1 688 34.1 672.8 34.1 672.8zM58.1 856c0 0-16 19-18 14 -1-3 0-24-3-35 5.8-2.1 10.8 1.8 15 4 3.8 2 7.1 2.1 8 3C59.1 843 58.1 856 58.1 856z"/><path class="rockyBorderSVG" d="M22.1 368c0 0-1-13 0-15 0-4.2-2-4.5-4-7 -1.8-2.2-3.6-6.9-6-5 -2.7-0.7-2.4 7.5-7 12 -2.4 1.1 7.5 15.2 10 18C17.1 371 22.1 383 22.1 368z"/><path class="rockyBorderSVG" d="M19.1 581c0 0-3-6-8-7 0 0-6 10-11 11 -1 5 6 12 8 14C13.1 599 17.1 592 19.1 581z"/><path class="rockyBorderSVG" d="M12.1 611c-4-1-6 9-8 11 -0.5 3.7 0.7 3.8 2 5 1.6 1.4 3.5 3.5 4 3 4-1 8-12 8-13C18.1 617 20.1 613 12.1 611z"/></svg>